<svg width="251" height="67" viewBox="0 0 251 67" fill="none" xmlns="http://www.w3.org/2000/svg">
<path d="M42.038 48V46.29H42.684C43.1907 46.29 43.596 46.214 43.9 46.062C44.2293 45.91 44.5207 45.6313 44.774 45.226C45.0527 44.7953 45.3313 44.1747 45.61 43.364L54.008 20.868H57.58L65.978 44.086C66.206 44.6687 66.434 45.1247 66.662 45.454C66.9153 45.758 67.2067 45.9733 67.536 46.1C67.8907 46.2267 68.296 46.29 68.752 46.29H69.284V48H58.264V46.29H59.29C59.9487 46.29 60.468 46.1507 60.848 45.872C61.228 45.5933 61.418 45.15 61.418 44.542C61.418 44.39 61.4053 44.238 61.38 44.086C61.3547 43.934 61.3167 43.7693 61.266 43.592C61.2153 43.4147 61.1647 43.25 61.114 43.098L59.632 38.956H49.828L48.498 42.756C48.422 42.9587 48.3587 43.174 48.308 43.402C48.2573 43.6047 48.2067 43.8073 48.156 44.01C48.1307 44.1873 48.118 44.3647 48.118 44.542C48.118 45.1247 48.3207 45.568 48.726 45.872C49.1313 46.1507 49.6887 46.29 50.398 46.29H51.5V48H42.038ZM50.588 36.942H58.91L56.668 30.406C56.44 29.6967 56.1993 29 55.946 28.316C55.718 27.632 55.5153 26.9733 55.338 26.34C55.1607 25.6813 54.996 25.048 54.844 24.44C54.7427 24.896 54.6287 25.352 54.502 25.808C54.3753 26.2387 54.236 26.682 54.084 27.138C53.9573 27.594 53.8053 28.0753 53.628 28.582C53.476 29.0633 53.286 29.57 53.058 30.102L50.588 36.942ZM83.2214 48.38C81.7521 48.38 80.5487 48.076 79.6114 47.468C78.6994 46.8347 77.9647 46.024 77.4074 45.036H77.1414L76.3434 48H69.9594V46.29H70.2254C70.7827 46.29 71.2894 46.2267 71.7454 46.1C72.2267 45.9733 72.6067 45.72 72.8854 45.34C73.1641 44.9347 73.3034 44.352 73.3034 43.592V23.414C73.3034 22.654 73.1514 22.0967 72.8474 21.742C72.5687 21.362 72.2014 21.1213 71.7454 21.02C71.2894 20.8933 70.7827 20.83 70.2254 20.83H69.9594V19.12H77.4834V25.96C77.4834 26.3907 77.4707 26.9353 77.4454 27.594C77.4454 28.2273 77.4201 28.848 77.3694 29.456C77.3441 30.064 77.3187 30.52 77.2934 30.824H77.4834C78.0407 29.7093 78.7754 28.8353 79.6874 28.202C80.5994 27.5433 81.7901 27.214 83.2594 27.214C85.7421 27.214 87.6421 28.0627 88.9594 29.76C90.3021 31.4573 90.9734 34.13 90.9734 37.778C90.9734 40.21 90.6694 42.2113 90.0614 43.782C89.4787 45.3527 88.6047 46.518 87.4394 47.278C86.2994 48.0127 84.8934 48.38 83.2214 48.38ZM82.3094 45.834C83.3481 45.834 84.1841 45.53 84.8174 44.922C85.4761 44.2887 85.9447 43.3767 86.2234 42.186C86.5274 40.97 86.6794 39.488 86.6794 37.74C86.6794 35.9667 86.5274 34.4973 86.2234 33.332C85.9447 32.1413 85.4761 31.2547 84.8174 30.672C84.1841 30.064 83.3354 29.76 82.2714 29.76C80.4474 29.76 79.1934 30.4187 78.5094 31.736C77.8254 33.0533 77.4834 35.0673 77.4834 37.778C77.4834 39.5007 77.6227 40.97 77.9014 42.186C78.2054 43.3767 78.7121 44.2887 79.4214 44.922C80.1307 45.53 81.0934 45.834 82.3094 45.834ZM104.084 48.38C101.272 48.38 99.0556 47.506 97.4343 45.758C95.8129 44.01 95.0023 41.35 95.0023 37.778C95.0023 34.206 95.7749 31.5587 97.3203 29.836C98.8656 28.088 101.158 27.214 104.198 27.214C107.01 27.214 109.227 28.088 110.848 29.836C112.47 31.5587 113.28 34.206 113.28 37.778C113.28 41.35 112.495 44.01 110.924 45.758C109.379 47.506 107.099 48.38 104.084 48.38ZM104.16 46.29C105.351 46.29 106.301 45.9733 107.01 45.34C107.72 44.7067 108.226 43.7567 108.53 42.49C108.834 41.198 108.986 39.6273 108.986 37.778C108.986 35.9033 108.822 34.3453 108.492 33.104C108.188 31.8627 107.682 30.9253 106.972 30.292C106.263 29.6587 105.313 29.342 104.122 29.342C102.932 29.342 101.982 29.6587 101.272 30.292C100.563 30.9253 100.056 31.8627 99.7523 33.104C99.4483 34.3453 99.2963 35.9033 99.2963 37.778C99.2963 39.6273 99.4483 41.198 99.7523 42.49C100.082 43.7567 100.601 44.7067 101.31 45.34C102.02 45.9733 102.97 46.29 104.16 46.29ZM125.513 48.38C123.512 48.38 121.966 47.7847 120.877 46.594C119.813 45.4033 119.281 43.5033 119.281 40.894V31.964C119.281 31.204 119.142 30.6467 118.863 30.292C118.61 29.912 118.255 29.6587 117.799 29.532C117.368 29.4053 116.874 29.342 116.317 29.342H116.203V27.632H123.461V40.476C123.461 41.5653 123.562 42.5027 123.765 43.288C123.993 44.0733 124.373 44.6813 124.905 45.112C125.462 45.5173 126.21 45.72 127.147 45.72C128.16 45.72 128.996 45.4667 129.655 44.96C130.314 44.4533 130.795 43.744 131.099 42.832C131.403 41.92 131.555 40.8687 131.555 39.678V32.002C131.555 31.2167 131.416 30.634 131.137 30.254C130.884 29.874 130.529 29.6333 130.073 29.532C129.617 29.4053 129.11 29.342 128.553 29.342H128.439V27.632H135.735V43.782C135.735 44.5167 135.862 45.074 136.115 45.454C136.394 45.8087 136.761 46.0367 137.217 46.138C137.673 46.2393 138.167 46.29 138.699 46.29H138.851V48H132.391L131.821 45.036H131.631C131.251 45.72 130.82 46.29 130.339 46.746C129.883 47.1767 129.402 47.5187 128.895 47.772C128.388 48 127.844 48.152 127.261 48.228C126.704 48.3293 126.121 48.38 125.513 48.38ZM148.904 48.38C147.029 48.38 145.636 47.9493 144.724 47.088C143.812 46.2013 143.356 44.656 143.356 42.452V29.912H140.506V28.278C141.038 28.278 141.595 28.164 142.178 27.936C142.761 27.708 143.255 27.3787 143.66 26.948C144.091 26.5173 144.445 25.9853 144.724 25.352C145.003 24.6933 145.231 23.8953 145.408 22.958H147.536V27.632H152.476V29.912H147.536V42.452C147.536 43.6933 147.777 44.6053 148.258 45.188C148.765 45.7707 149.461 46.062 150.348 46.062C150.804 46.062 151.222 46.0367 151.602 45.986C152.007 45.9353 152.413 45.872 152.818 45.796V47.696C152.489 47.848 151.957 48 151.222 48.152C150.487 48.304 149.715 48.38 148.904 48.38Z" fill="white"/>
<path d="M164.9 48V46.29H165.698C166.205 46.29 166.661 46.2393 167.066 46.138C167.497 46.0113 167.839 45.7707 168.092 45.416C168.371 45.0613 168.51 44.5293 168.51 43.82V25.086C168.51 24.3513 168.371 23.8067 168.092 23.452C167.839 23.0973 167.497 22.8693 167.066 22.768C166.661 22.6413 166.205 22.578 165.698 22.578H164.9V20.868H174.21L181.62 41.654L188.954 20.868H198.036V22.578H197.238C196.732 22.578 196.263 22.6413 195.832 22.768C195.402 22.8947 195.06 23.148 194.806 23.528C194.553 23.8827 194.426 24.4527 194.426 25.238V43.63C194.426 44.39 194.553 44.96 194.806 45.34C195.06 45.72 195.402 45.9733 195.832 46.1C196.263 46.2267 196.732 46.29 197.238 46.29H198.036V48H187.358V46.29H187.548C188.08 46.29 188.536 46.2393 188.916 46.138C189.322 46.0113 189.626 45.7833 189.828 45.454C190.031 45.1247 190.145 44.6307 190.17 43.972V23.984L181.772 48H179.568L170.98 24.022V43.63C170.98 44.39 171.082 44.96 171.284 45.34C171.512 45.72 171.829 45.9733 172.234 46.1C172.665 46.2267 173.159 46.29 173.716 46.29H173.868V48H164.9ZM210.477 48.38C207.589 48.38 205.347 47.468 203.751 45.644C202.18 43.82 201.395 41.2613 201.395 37.968C201.395 34.396 202.155 31.7107 203.675 29.912C205.195 28.1133 207.336 27.214 210.097 27.214C212.63 27.214 214.619 27.9867 216.063 29.532C217.532 31.052 218.267 33.3193 218.267 36.334V38.12H205.689C205.74 39.9187 205.968 41.4007 206.373 42.566C206.804 43.706 207.412 44.542 208.197 45.074C209.008 45.606 209.996 45.872 211.161 45.872C212.048 45.872 212.833 45.7453 213.517 45.492C214.226 45.2133 214.834 44.8713 215.341 44.466C215.873 44.0353 216.291 43.5793 216.595 43.098C216.823 43.1993 217.013 43.3767 217.165 43.63C217.317 43.8833 217.393 44.1873 217.393 44.542C217.393 45.0993 217.14 45.682 216.633 46.29C216.152 46.8727 215.392 47.3667 214.353 47.772C213.34 48.1773 212.048 48.38 210.477 48.38ZM213.897 35.954C213.897 34.6367 213.77 33.484 213.517 32.496C213.264 31.508 212.858 30.748 212.301 30.216C211.744 29.6587 210.996 29.38 210.059 29.38C209.198 29.38 208.45 29.6333 207.817 30.14C207.209 30.6467 206.728 31.394 206.373 32.382C206.044 33.3447 205.841 34.5353 205.765 35.954H213.897Z" fill="#FA7892"/>
<line x1="221.293" y1="16.293" x2="236.142" y2="1.44377" stroke="white" stroke-width="2"/>
<line x1="225.732" y1="23.1381" x2="245.772" y2="16.8602" stroke="white" stroke-width="2"/>
<line x1="229.528" y1="33.0562" x2="250.514" y2="33.8302" stroke="white" stroke-width="2"/>
<g clip-path="url(#clip0_2019_32)">
<path d="M0.945119 58.4663L5.72683 56.7257L7.46626 51.9451C7.50614 51.8356 7.57875 51.741 7.67422 51.6742C7.7697 51.6073 7.88343 51.5715 7.99998 51.5715C8.11653 51.5715 8.23025 51.6073 8.32573 51.6742C8.42121 51.741 8.49381 51.8356 8.53369 51.9451L10.2743 56.7268L15.056 58.4663C15.1655 58.5061 15.2601 58.5787 15.3269 58.6742C15.3938 58.7697 15.4296 58.8834 15.4296 59C15.4296 59.1165 15.3938 59.2303 15.3269 59.3257C15.2601 59.4212 15.1655 59.4938 15.056 59.5337L10.2731 61.2743L8.53369 66.056C8.49381 66.1655 8.42121 66.2601 8.32573 66.3269C8.23025 66.3938 8.11653 66.4296 7.99998 66.4296C7.88343 66.4296 7.7697 66.3938 7.67422 66.3269C7.57875 66.2601 7.50614 66.1655 7.46626 66.056L5.72569 61.2731L0.945119 59.5337C0.835605 59.4938 0.74101 59.4212 0.674168 59.3257C0.607325 59.2303 0.571472 59.1165 0.571472 59C0.571472 58.8834 0.607325 58.7697 0.674168 58.6742C0.74101 58.5787 0.835605 58.5061 0.945119 58.4663Z" stroke="white" stroke-linecap="round" stroke-linejoin="round"/>
</g>
<defs>
<clipPath id="clip0_2019_32">
<rect width="16" height="16" fill="white" transform="translate(0 51)"/>
</clipPath>
</defs>
</svg>
