<svg width="93" height="50" viewBox="0 0 93 50" fill="none" xmlns="http://www.w3.org/2000/svg">
<rect x="0.5" y="15.5" width="70" height="34" rx="17" stroke="black"/>
<path d="M15.5455 38V26.3636H16.608V31.6989H23.2102V26.3636H24.2727V38H23.2102V32.6534H16.608V38H15.5455ZM30.6761 38.1818C29.8617 38.1818 29.1572 37.9924 28.5625 37.6136C27.9678 37.2311 27.5076 36.7027 27.1818 36.0284C26.8598 35.3504 26.6989 34.5701 26.6989 33.6875C26.6989 32.8087 26.8598 32.0284 27.1818 31.3466C27.5076 30.661 27.9564 30.125 28.5284 29.7386C29.1042 29.3485 29.7689 29.1534 30.5227 29.1534C30.9962 29.1534 31.4527 29.2405 31.892 29.4148C32.3314 29.5852 32.7254 29.8485 33.0739 30.2045C33.4261 30.5568 33.7045 31.0019 33.9091 31.5398C34.1136 32.0739 34.2159 32.7064 34.2159 33.4375V33.9375H27.3977V33.0455H33.1818C33.1818 32.4848 33.0682 31.9811 32.8409 31.5341C32.6174 31.0833 32.3049 30.7273 31.9034 30.4659C31.5057 30.2045 31.0455 30.0739 30.5227 30.0739C29.9697 30.0739 29.483 30.2216 29.0625 30.517C28.642 30.8125 28.3125 31.2027 28.0739 31.6875C27.839 32.1723 27.7197 32.7027 27.7159 33.2784V33.8125C27.7159 34.5057 27.8352 35.1117 28.0739 35.6307C28.3163 36.1458 28.6591 36.5455 29.1023 36.8295C29.5455 37.1136 30.0701 37.2557 30.6761 37.2557C31.089 37.2557 31.4508 37.1913 31.7614 37.0625C32.0758 36.9337 32.339 36.7614 32.5511 36.5455C32.767 36.3258 32.9299 36.0852 33.0398 35.8239L34 36.1364C33.8674 36.5038 33.6496 36.8428 33.3466 37.1534C33.0473 37.464 32.6723 37.714 32.2216 37.9034C31.7746 38.089 31.2595 38.1818 30.6761 38.1818ZM37.456 26.3636V38H36.4446V26.3636H37.456ZM41.1435 26.3636V38H40.1321V26.3636H41.1435ZM47.2116 38.1818C46.4579 38.1818 45.7912 37.9905 45.2116 37.608C44.6359 37.2254 44.1851 36.697 43.8594 36.0227C43.5336 35.3447 43.3707 34.5625 43.3707 33.6761C43.3707 32.7822 43.5336 31.9962 43.8594 31.3182C44.1851 30.6364 44.6359 30.1061 45.2116 29.7273C45.7912 29.3447 46.4579 29.1534 47.2116 29.1534C47.9654 29.1534 48.6302 29.3447 49.206 29.7273C49.7817 30.1098 50.2325 30.6402 50.5582 31.3182C50.8878 31.9962 51.0526 32.7822 51.0526 33.6761C51.0526 34.5625 50.8897 35.3447 50.5639 36.0227C50.2382 36.697 49.7855 37.2254 49.206 37.608C48.6302 37.9905 47.9654 38.1818 47.2116 38.1818ZM47.2116 37.2557C47.8177 37.2557 48.331 37.0928 48.7514 36.767C49.1719 36.4413 49.4901 36.0076 49.706 35.4659C49.9257 34.9242 50.0355 34.3277 50.0355 33.6761C50.0355 33.0246 49.9257 32.4261 49.706 31.8807C49.4901 31.3352 49.1719 30.8977 48.7514 30.5682C48.331 30.2386 47.8177 30.0739 47.2116 30.0739C46.6094 30.0739 46.0961 30.2386 45.6719 30.5682C45.2514 30.8977 44.9313 31.3352 44.7116 31.8807C44.4957 32.4261 44.3878 33.0246 44.3878 33.6761C44.3878 34.3277 44.4957 34.9242 44.7116 35.4659C44.9313 36.0076 45.2514 36.4413 45.6719 36.767C46.0923 37.0928 46.6056 37.2557 47.2116 37.2557ZM54.6932 26.3636L54.6193 34.6648H53.6193L53.5455 26.3636H54.6932ZM54.1193 38.0852C53.8958 38.0852 53.7027 38.0057 53.5398 37.8466C53.3807 37.6837 53.3011 37.4905 53.3011 37.267C53.3011 37.0398 53.3807 36.8466 53.5398 36.6875C53.7027 36.5284 53.8958 36.4489 54.1193 36.4489C54.3428 36.4489 54.5341 36.5284 54.6932 36.6875C54.8561 36.8466 54.9375 37.0398 54.9375 37.267C54.9375 37.4148 54.8996 37.5511 54.8239 37.6761C54.7519 37.8011 54.6534 37.9015 54.5284 37.9773C54.4072 38.0492 54.2708 38.0852 54.1193 38.0852Z" fill="black"/>
<line x1="67.2929" y1="13.293" x2="79.3137" y2="1.27214" stroke="#FA7892" stroke-width="2"/>
<line x1="71.7321" y1="20.1381" x2="87.9546" y2="15.056" stroke="#FA7892" stroke-width="2"/>
<line x1="75.5279" y1="30.0562" x2="92.5164" y2="30.6827" stroke="#FA7892" stroke-width="2"/>
</svg>
