<svg width="697" height="59" viewBox="0 0 697 59" fill="none" xmlns="http://www.w3.org/2000/svg">
<path d="M22.6733 21.9531V18.3636H44.0618V21.9531H35.4389V46H31.2827V21.9531H22.6733ZM54.3917 46.4183C52.3496 46.4183 50.5908 45.982 49.1154 45.1094C47.649 44.2277 46.5155 42.9908 45.7148 41.3984C44.9232 39.7971 44.5273 37.9214 44.5273 35.7713C44.5273 33.6482 44.9232 31.777 45.7148 30.1577C46.5155 28.5384 47.631 27.2744 49.0614 26.3658C50.5008 25.4571 52.1831 25.0028 54.1083 25.0028C55.2778 25.0028 56.4113 25.1963 57.5089 25.5831C58.6064 25.9699 59.5915 26.5772 60.4641 27.4048C61.3368 28.2325 62.025 29.3075 62.5288 30.63C63.0326 31.9434 63.2844 33.5402 63.2844 35.4205V36.8509H46.8079V33.8281H59.3306C59.3306 32.7666 59.1147 31.8265 58.6829 31.0078C58.2511 30.1802 57.6438 29.5279 56.8612 29.0511C56.0875 28.5743 55.1789 28.3359 54.1353 28.3359C53.0018 28.3359 52.0122 28.6148 51.1665 29.1726C50.3299 29.7214 49.6822 30.4411 49.2234 31.3317C48.7736 32.2133 48.5487 33.1714 48.5487 34.206V36.5675C48.5487 37.9529 48.7915 39.1314 49.2773 40.103C49.7721 41.0746 50.4603 41.8168 51.342 42.3295C52.2236 42.8333 53.2537 43.0852 54.4322 43.0852C55.1969 43.0852 55.8941 42.9773 56.5238 42.7614C57.1535 42.5365 57.6978 42.2036 58.1566 41.7628C58.6154 41.322 58.9663 40.7777 59.2092 40.13L63.0281 40.8182C62.7222 41.9427 62.1734 42.9278 61.3817 43.7734C60.5991 44.6101 59.614 45.2623 58.4265 45.7301C57.248 46.1889 55.9031 46.4183 54.3917 46.4183ZM83.2931 30.3331L79.6362 30.9808C79.4833 30.513 79.2404 30.0677 78.9075 29.6449C78.5836 29.2221 78.1428 28.8757 77.5851 28.6058C77.0273 28.3359 76.3301 28.201 75.4934 28.201C74.3509 28.201 73.3973 28.4574 72.6326 28.9702C71.868 29.474 71.4856 30.1262 71.4856 30.9268C71.4856 31.6196 71.742 32.1773 72.2548 32.6001C72.7676 33.023 73.5952 33.3693 74.7377 33.6392L78.0304 34.3949C79.9376 34.8357 81.359 35.5149 82.2946 36.4325C83.2302 37.3501 83.698 38.5421 83.698 40.0085C83.698 41.25 83.3381 42.3565 82.6184 43.3281C81.9077 44.2907 80.9136 45.0464 79.6362 45.5952C78.3677 46.1439 76.8968 46.4183 75.2235 46.4183C72.9025 46.4183 71.0088 45.9235 69.5424 44.9339C68.0761 43.9354 67.1764 42.5185 66.8436 40.6832L70.7434 40.0895C70.9863 41.1061 71.4856 41.8752 72.2413 42.397C72.997 42.9098 73.9821 43.1662 75.1966 43.1662C76.519 43.1662 77.5761 42.8918 78.3677 42.343C79.1594 41.7853 79.5552 41.1061 79.5552 40.3054C79.5552 39.6577 79.3123 39.1134 78.8265 38.6726C78.3497 38.2318 77.6165 37.8989 76.627 37.674L73.1184 36.9048C71.1842 36.464 69.7538 35.7623 68.8272 34.7997C67.9096 33.8371 67.4508 32.6181 67.4508 31.1428C67.4508 29.9193 67.7927 28.8487 68.4764 27.9311C69.1601 27.0135 70.1047 26.2983 71.3102 25.7855C72.5157 25.2637 73.8966 25.0028 75.4529 25.0028C77.693 25.0028 79.4563 25.4886 80.7427 26.4602C82.0292 27.4228 82.8793 28.7138 83.2931 30.3331ZM97.8097 25.2727V28.5114H86.4879V25.2727H97.8097ZM89.5241 20.3068H93.5589V39.9141C93.5589 40.6967 93.6759 41.286 93.9098 41.6818C94.1437 42.0687 94.4451 42.334 94.8139 42.478C95.1918 42.6129 95.6011 42.6804 96.0419 42.6804C96.3658 42.6804 96.6491 42.6579 96.892 42.6129C97.1349 42.5679 97.3239 42.532 97.4588 42.505L98.1875 45.8381C97.9536 45.928 97.6207 46.018 97.1889 46.108C96.7571 46.2069 96.2173 46.2609 95.5696 46.2699C94.508 46.2879 93.5185 46.099 92.6009 45.7031C91.6832 45.3073 90.9411 44.6955 90.3743 43.8679C89.8075 43.0402 89.5241 42.0012 89.5241 40.7507V20.3068ZM102.273 46V25.2727H106.308V46H102.273ZM104.311 22.0746C103.609 22.0746 103.006 21.8407 102.502 21.3729C102.008 20.8961 101.76 20.3293 101.76 19.6726C101.76 19.0069 102.008 18.4401 102.502 17.9723C103.006 17.4955 103.609 17.2571 104.311 17.2571C105.012 17.2571 105.61 17.4955 106.105 17.9723C106.609 18.4401 106.861 19.0069 106.861 19.6726C106.861 20.3293 106.609 20.8961 106.105 21.3729C105.61 21.8407 105.012 22.0746 104.311 22.0746ZM111.736 46V25.2727H115.609V28.6463H115.865C116.297 27.5038 117.003 26.6132 117.984 25.9744C118.964 25.3267 120.138 25.0028 121.506 25.0028C122.891 25.0028 124.052 25.3267 124.987 25.9744C125.932 26.6222 126.629 27.5128 127.079 28.6463H127.295C127.79 27.5398 128.577 26.6581 129.656 26.0014C130.736 25.3357 132.022 25.0028 133.516 25.0028C135.396 25.0028 136.93 25.5921 138.117 26.7706C139.314 27.9491 139.912 29.7259 139.912 32.1009V46H135.877V32.4787C135.877 31.0753 135.495 30.0587 134.73 29.429C133.965 28.7992 133.052 28.4844 131.991 28.4844C130.677 28.4844 129.656 28.8892 128.928 29.6989C128.199 30.4995 127.835 31.5296 127.835 32.7891V46H123.813V32.2223C123.813 31.0978 123.462 30.1937 122.761 29.5099C122.059 28.8262 121.146 28.4844 120.021 28.4844C119.257 28.4844 118.55 28.6868 117.903 29.0916C117.264 29.4875 116.747 30.0407 116.351 30.7514C115.964 31.4621 115.771 32.2853 115.771 33.2209V46H111.736ZM154.051 46.4183C152.107 46.4183 150.412 45.973 148.963 45.0824C147.515 44.1918 146.39 42.9458 145.59 41.3445C144.789 39.7431 144.389 37.8719 144.389 35.7308C144.389 33.5807 144.789 31.7005 145.59 30.0902C146.39 28.4799 147.515 27.2294 148.963 26.3388C150.412 25.4482 152.107 25.0028 154.051 25.0028C155.994 25.0028 157.69 25.4482 159.138 26.3388C160.586 27.2294 161.711 28.4799 162.512 30.0902C163.312 31.7005 163.713 33.5807 163.713 35.7308C163.713 37.8719 163.312 39.7431 162.512 41.3445C161.711 42.9458 160.586 44.1918 159.138 45.0824C157.69 45.973 155.994 46.4183 154.051 46.4183ZM154.064 43.0312C155.324 43.0312 156.367 42.6984 157.195 42.0327C158.022 41.367 158.634 40.4808 159.03 39.3743C159.435 38.2678 159.637 37.0488 159.637 35.7173C159.637 34.3949 159.435 33.1804 159.03 32.0739C158.634 30.9583 158.022 30.0632 157.195 29.3885C156.367 28.7138 155.324 28.3764 154.064 28.3764C152.796 28.3764 151.743 28.7138 150.906 29.3885C150.079 30.0632 149.463 30.9583 149.058 32.0739C148.662 33.1804 148.464 34.3949 148.464 35.7173C148.464 37.0488 148.662 38.2678 149.058 39.3743C149.463 40.4808 150.079 41.367 150.906 42.0327C151.743 42.6984 152.796 43.0312 154.064 43.0312ZM172.251 33.6932V46H168.216V25.2727H172.089V28.6463H172.346C172.822 27.5488 173.569 26.6671 174.586 26.0014C175.611 25.3357 176.902 25.0028 178.458 25.0028C179.871 25.0028 181.108 25.2997 182.169 25.8935C183.231 26.4782 184.054 27.3509 184.639 28.5114C185.224 29.6719 185.516 31.1068 185.516 32.8161V46H181.481V33.3018C181.481 31.7995 181.09 30.6255 180.307 29.7798C179.525 28.9252 178.449 28.4979 177.082 28.4979C176.146 28.4979 175.314 28.7003 174.586 29.1051C173.866 29.5099 173.295 30.1037 172.872 30.8864C172.458 31.66 172.251 32.5956 172.251 33.6932ZM190.927 46V25.2727H194.962V46H190.927ZM192.965 22.0746C192.263 22.0746 191.66 21.8407 191.157 21.3729C190.662 20.8961 190.414 20.3293 190.414 19.6726C190.414 19.0069 190.662 18.4401 191.157 17.9723C191.66 17.4955 192.263 17.2571 192.965 17.2571C193.667 17.2571 194.265 17.4955 194.76 17.9723C195.263 18.4401 195.515 19.0069 195.515 19.6726C195.515 20.3293 195.263 20.8961 194.76 21.3729C194.265 21.8407 193.667 22.0746 192.965 22.0746ZM206.422 46.4588C205.109 46.4588 203.921 46.2159 202.86 45.7301C201.798 45.2353 200.957 44.5201 200.336 43.5845C199.724 42.6489 199.419 41.5019 199.419 40.1435C199.419 38.974 199.643 38.0114 200.093 37.2557C200.543 36.5 201.15 35.9018 201.915 35.4609C202.68 35.0201 203.534 34.6873 204.479 34.4624C205.423 34.2375 206.386 34.0665 207.367 33.9496C208.608 33.8056 209.616 33.6887 210.389 33.5987C211.163 33.4998 211.725 33.3423 212.076 33.1264C212.427 32.9105 212.602 32.5597 212.602 32.0739V31.9794C212.602 30.8009 212.27 29.8878 211.604 29.2401C210.947 28.5923 209.967 28.2685 208.662 28.2685C207.304 28.2685 206.233 28.5698 205.45 29.1726C204.677 29.7663 204.142 30.4276 203.845 31.1562L200.053 30.2926C200.503 29.0331 201.159 28.0166 202.023 27.2429C202.896 26.4602 203.899 25.8935 205.032 25.5426C206.166 25.1828 207.358 25.0028 208.608 25.0028C209.436 25.0028 210.313 25.1018 211.24 25.2997C212.175 25.4886 213.048 25.8395 213.857 26.3523C214.676 26.8651 215.346 27.5982 215.868 28.5518C216.39 29.4964 216.651 30.7244 216.651 32.2358V46H212.71V43.1662H212.548C212.288 43.688 211.896 44.2008 211.374 44.7045C210.853 45.2083 210.182 45.6267 209.364 45.9595C208.545 46.2924 207.565 46.4588 206.422 46.4588ZM207.299 43.2202C208.415 43.2202 209.368 42.9998 210.16 42.5589C210.961 42.1181 211.568 41.5424 211.982 40.8317C212.405 40.112 212.616 39.3428 212.616 38.5241V35.8523C212.472 35.9962 212.193 36.1312 211.779 36.2571C211.374 36.3741 210.911 36.4775 210.389 36.5675C209.868 36.6484 209.359 36.7249 208.865 36.7969C208.37 36.8598 207.956 36.9138 207.623 36.9588C206.84 37.0578 206.125 37.2242 205.477 37.4581C204.839 37.692 204.326 38.0294 203.939 38.4702C203.561 38.902 203.372 39.4777 203.372 40.1974C203.372 41.196 203.741 41.9517 204.479 42.4645C205.217 42.9683 206.157 43.2202 207.299 43.2202ZM226.06 18.3636V46H222.025V18.3636H226.06ZM247.02 30.3331L243.363 30.9808C243.21 30.513 242.967 30.0677 242.634 29.6449C242.31 29.2221 241.869 28.8757 241.312 28.6058C240.754 28.3359 240.057 28.201 239.22 28.201C238.077 28.201 237.124 28.4574 236.359 28.9702C235.595 29.474 235.212 30.1262 235.212 30.9268C235.212 31.6196 235.469 32.1773 235.981 32.6001C236.494 33.023 237.322 33.3693 238.464 33.6392L241.757 34.3949C243.664 34.8357 245.086 35.5149 246.021 36.4325C246.957 37.3501 247.425 38.5421 247.425 40.0085C247.425 41.25 247.065 42.3565 246.345 43.3281C245.634 44.2907 244.64 45.0464 243.363 45.5952C242.094 46.1439 240.623 46.4183 238.95 46.4183C236.629 46.4183 234.735 45.9235 233.269 44.9339C231.803 43.9354 230.903 42.5185 230.57 40.6832L234.47 40.0895C234.713 41.1061 235.212 41.8752 235.968 42.397C236.724 42.9098 237.709 43.1662 238.923 43.1662C240.246 43.1662 241.303 42.8918 242.094 42.343C242.886 41.7853 243.282 41.1061 243.282 40.3054C243.282 39.6577 243.039 39.1134 242.553 38.6726C242.076 38.2318 241.343 37.8989 240.354 37.674L236.845 36.9048C234.911 36.464 233.48 35.7623 232.554 34.7997C231.636 33.8371 231.177 32.6181 231.177 31.1428C231.177 29.9193 231.519 28.8487 232.203 27.9311C232.887 27.0135 233.831 26.2983 235.037 25.7855C236.242 25.2637 237.623 25.0028 239.18 25.0028C241.42 25.0028 243.183 25.4886 244.469 26.4602C245.756 27.4228 246.606 28.7138 247.02 30.3331ZM262.241 46V18.3636H279.379V21.9531H266.411V30.3736H278.151V33.9496H266.411V46H262.241ZM283.923 46V25.2727H287.823V28.5653H288.039C288.417 27.4498 289.083 26.5727 290.036 25.9339C290.999 25.2862 292.087 24.9624 293.302 24.9624C293.554 24.9624 293.851 24.9714 294.192 24.9893C294.543 25.0073 294.818 25.0298 295.016 25.0568V28.9162C294.854 28.8712 294.566 28.8217 294.152 28.7678C293.738 28.7048 293.324 28.6733 292.911 28.6733C291.957 28.6733 291.107 28.8757 290.36 29.2805C289.622 29.6764 289.038 30.2296 288.606 30.9403C288.174 31.642 287.958 32.4427 287.958 33.3423V46H283.923ZM306.496 46.4183C304.553 46.4183 302.857 45.973 301.409 45.0824C299.96 44.1918 298.836 42.9458 298.035 41.3445C297.234 39.7431 296.834 37.8719 296.834 35.7308C296.834 33.5807 297.234 31.7005 298.035 30.0902C298.836 28.4799 299.96 27.2294 301.409 26.3388C302.857 25.4482 304.553 25.0028 306.496 25.0028C308.439 25.0028 310.135 25.4482 311.583 26.3388C313.032 27.2294 314.156 28.4799 314.957 30.0902C315.758 31.7005 316.158 33.5807 316.158 35.7308C316.158 37.8719 315.758 39.7431 314.957 41.3445C314.156 42.9458 313.032 44.1918 311.583 45.0824C310.135 45.973 308.439 46.4183 306.496 46.4183ZM306.509 43.0312C307.769 43.0312 308.812 42.6984 309.64 42.0327C310.468 41.367 311.079 40.4808 311.475 39.3743C311.88 38.2678 312.083 37.0488 312.083 35.7173C312.083 34.3949 311.88 33.1804 311.475 32.0739C311.079 30.9583 310.468 30.0632 309.64 29.3885C308.812 28.7138 307.769 28.3764 306.509 28.3764C305.241 28.3764 304.188 28.7138 303.352 29.3885C302.524 30.0632 301.908 30.9583 301.503 32.0739C301.107 33.1804 300.909 34.3949 300.909 35.7173C300.909 37.0488 301.107 38.2678 301.503 39.3743C301.908 40.4808 302.524 41.367 303.352 42.0327C304.188 42.6984 305.241 43.0312 306.509 43.0312ZM320.662 46V25.2727H324.534V28.6463H324.791C325.223 27.5038 325.929 26.6132 326.909 25.9744C327.89 25.3267 329.064 25.0028 330.431 25.0028C331.817 25.0028 332.977 25.3267 333.913 25.9744C334.858 26.6222 335.555 27.5128 336.005 28.6463H336.221C336.715 27.5398 337.502 26.6581 338.582 26.0014C339.662 25.3357 340.948 25.0028 342.441 25.0028C344.322 25.0028 345.855 25.5921 347.043 26.7706C348.239 27.9491 348.838 29.7259 348.838 32.1009V46H344.803V32.4787C344.803 31.0753 344.421 30.0587 343.656 29.429C342.891 28.7992 341.978 28.4844 340.917 28.4844C339.603 28.4844 338.582 28.8892 337.853 29.6989C337.125 30.4995 336.76 31.5296 336.76 32.7891V46H332.739V32.2223C332.739 31.0978 332.388 30.1937 331.686 29.5099C330.985 28.8262 330.072 28.4844 328.947 28.4844C328.182 28.4844 327.476 28.6868 326.828 29.0916C326.19 29.4875 325.672 30.0407 325.277 30.7514C324.89 31.4621 324.696 32.2853 324.696 33.2209V46H320.662Z" fill="white"/>
<path d="M364.626 46V18.3636H374.477C376.627 18.3636 378.408 18.755 379.821 19.5376C381.233 20.3203 382.29 21.3909 382.992 22.7493C383.694 24.0987 384.044 25.6191 384.044 27.3104C384.044 29.0107 383.689 30.54 382.978 31.8984C382.277 33.2479 381.215 34.3184 379.794 35.1101C378.381 35.8928 376.605 36.2841 374.463 36.2841H367.689V32.7486H374.086C375.444 32.7486 376.546 32.5147 377.392 32.0469C378.237 31.5701 378.858 30.9223 379.254 30.1037C379.65 29.285 379.848 28.3539 379.848 27.3104C379.848 26.2668 379.65 25.3402 379.254 24.5305C378.858 23.7209 378.233 23.0866 377.378 22.6278C376.533 22.169 375.417 21.9396 374.032 21.9396H368.796V46H364.626ZM388.609 46V25.2727H392.509V28.5653H392.725C393.102 27.4498 393.768 26.5727 394.722 25.9339C395.684 25.2862 396.773 24.9624 397.987 24.9624C398.239 24.9624 398.536 24.9714 398.878 24.9893C399.229 25.0073 399.503 25.0298 399.701 25.0568V28.9162C399.539 28.8712 399.251 28.8217 398.838 28.7678C398.424 28.7048 398.01 28.6733 397.596 28.6733C396.642 28.6733 395.792 28.8757 395.046 29.2805C394.308 29.6764 393.723 30.2296 393.291 30.9403C392.86 31.642 392.644 32.4427 392.644 33.3423V46H388.609ZM411.384 46.4183C409.342 46.4183 407.583 45.982 406.108 45.1094C404.641 44.2277 403.508 42.9908 402.707 41.3984C401.915 39.7971 401.52 37.9214 401.52 35.7713C401.52 33.6482 401.915 31.777 402.707 30.1577C403.508 28.5384 404.623 27.2744 406.054 26.3658C407.493 25.4571 409.175 25.0028 411.1 25.0028C412.27 25.0028 413.404 25.1963 414.501 25.5831C415.599 25.9699 416.584 26.5772 417.456 27.4048C418.329 28.2325 419.017 29.3075 419.521 30.63C420.025 31.9434 420.277 33.5402 420.277 35.4205V36.8509H403.8V33.8281H416.323C416.323 32.7666 416.107 31.8265 415.675 31.0078C415.243 30.1802 414.636 29.5279 413.853 29.0511C413.08 28.5743 412.171 28.3359 411.127 28.3359C409.994 28.3359 409.004 28.6148 408.159 29.1726C407.322 29.7214 406.674 30.4411 406.216 31.3317C405.766 32.2133 405.541 33.1714 405.541 34.206V36.5675C405.541 37.9529 405.784 39.1314 406.27 40.103C406.764 41.0746 407.453 41.8168 408.334 42.3295C409.216 42.8333 410.246 43.0852 411.424 43.0852C412.189 43.0852 412.886 42.9773 413.516 42.7614C414.146 42.5365 414.69 42.2036 415.149 41.7628C415.608 41.322 415.958 40.7777 416.201 40.13L420.02 40.8182C419.714 41.9427 419.166 42.9278 418.374 43.7734C417.591 44.6101 416.606 45.2623 415.419 45.7301C414.24 46.1889 412.895 46.4183 411.384 46.4183ZM441.891 25.2727L434.375 46H430.057L422.527 25.2727H426.858L432.108 41.223H432.324L437.559 25.2727H441.891ZM445.683 46V25.2727H449.718V46H445.683ZM447.721 22.0746C447.019 22.0746 446.416 21.8407 445.912 21.3729C445.418 20.8961 445.17 20.3293 445.17 19.6726C445.17 19.0069 445.418 18.4401 445.912 17.9723C446.416 17.4955 447.019 17.2571 447.721 17.2571C448.422 17.2571 449.021 17.4955 449.515 17.9723C450.019 18.4401 450.271 19.0069 450.271 19.6726C450.271 20.3293 450.019 20.8961 449.515 21.3729C449.021 21.8407 448.422 22.0746 447.721 22.0746ZM463.877 46.4183C461.934 46.4183 460.238 45.973 458.789 45.0824C457.341 44.1918 456.217 42.9458 455.416 41.3445C454.615 39.7431 454.215 37.8719 454.215 35.7308C454.215 33.5807 454.615 31.7005 455.416 30.0902C456.217 28.4799 457.341 27.2294 458.789 26.3388C460.238 25.4482 461.934 25.0028 463.877 25.0028C465.82 25.0028 467.516 25.4482 468.964 26.3388C470.413 27.2294 471.537 28.4799 472.338 30.0902C473.138 31.7005 473.539 33.5807 473.539 35.7308C473.539 37.8719 473.138 39.7431 472.338 41.3445C471.537 42.9458 470.413 44.1918 468.964 45.0824C467.516 45.973 465.82 46.4183 463.877 46.4183ZM463.89 43.0312C465.15 43.0312 466.193 42.6984 467.021 42.0327C467.849 41.367 468.46 40.4808 468.856 39.3743C469.261 38.2678 469.463 37.0488 469.463 35.7173C469.463 34.3949 469.261 33.1804 468.856 32.0739C468.46 30.9583 467.849 30.0632 467.021 29.3885C466.193 28.7138 465.15 28.3764 463.89 28.3764C462.622 28.3764 461.569 28.7138 460.733 29.3885C459.905 30.0632 459.289 30.9583 458.884 32.0739C458.488 33.1804 458.29 34.3949 458.29 35.7173C458.29 37.0488 458.488 38.2678 458.884 39.3743C459.289 40.4808 459.905 41.367 460.733 42.0327C461.569 42.6984 462.622 43.0312 463.89 43.0312ZM491.172 37.4041V25.2727H495.221V46H491.253V42.4105H491.037C490.561 43.517 489.796 44.4392 488.743 45.1768C487.7 45.9055 486.4 46.2699 484.844 46.2699C483.512 46.2699 482.334 45.9775 481.308 45.3928C480.291 44.799 479.491 43.9219 478.906 42.7614C478.33 41.6009 478.042 40.166 478.042 38.4567V25.2727H482.077V37.9709C482.077 39.3833 482.469 40.5078 483.251 41.3445C484.034 42.1811 485.05 42.5994 486.301 42.5994C487.057 42.5994 487.808 42.4105 488.555 42.0327C489.31 41.6548 489.935 41.0836 490.43 40.3189C490.934 39.5542 491.181 38.5826 491.172 37.4041ZM516.174 30.3331L512.517 30.9808C512.364 30.513 512.121 30.0677 511.788 29.6449C511.464 29.2221 511.024 28.8757 510.466 28.6058C509.908 28.3359 509.211 28.201 508.374 28.201C507.232 28.201 506.278 28.4574 505.513 28.9702C504.749 29.474 504.366 30.1262 504.366 30.9268C504.366 31.6196 504.623 32.1773 505.136 32.6001C505.648 33.023 506.476 33.3693 507.619 33.6392L510.911 34.3949C512.818 34.8357 514.24 35.5149 515.175 36.4325C516.111 37.3501 516.579 38.5421 516.579 40.0085C516.579 41.25 516.219 42.3565 515.499 43.3281C514.789 44.2907 513.795 45.0464 512.517 45.5952C511.249 46.1439 509.778 46.4183 508.104 46.4183C505.783 46.4183 503.89 45.9235 502.423 44.9339C500.957 43.9354 500.057 42.5185 499.724 40.6832L503.624 40.0895C503.867 41.1061 504.366 41.8752 505.122 42.397C505.878 42.9098 506.863 43.1662 508.077 43.1662C509.4 43.1662 510.457 42.8918 511.249 42.343C512.04 41.7853 512.436 41.1061 512.436 40.3054C512.436 39.6577 512.193 39.1134 511.707 38.6726C511.231 38.2318 510.497 37.8989 509.508 37.674L505.999 36.9048C504.065 36.464 502.635 35.7623 501.708 34.7997C500.79 33.8371 500.332 32.6181 500.332 31.1428C500.332 29.9193 500.674 28.8487 501.357 27.9311C502.041 27.0135 502.986 26.2983 504.191 25.7855C505.397 25.2637 506.777 25.0028 508.334 25.0028C510.574 25.0028 512.337 25.4886 513.624 26.4602C514.91 27.4228 515.76 28.7138 516.174 30.3331ZM554.349 27.3509H550.139C549.977 26.4512 549.676 25.6596 549.235 24.9759C548.794 24.2921 548.254 23.7119 547.616 23.2351C546.977 22.7583 546.262 22.3984 545.47 22.1555C544.688 21.9126 543.855 21.7912 542.974 21.7912C541.381 21.7912 539.955 22.1915 538.696 22.9922C537.446 23.7929 536.456 24.9669 535.727 26.5142C535.008 28.0616 534.648 29.9508 534.648 32.1818C534.648 34.4309 535.008 36.3291 535.727 37.8764C536.456 39.4238 537.45 40.5933 538.71 41.3849C539.969 42.1766 541.386 42.5724 542.96 42.5724C543.833 42.5724 544.661 42.4555 545.443 42.2216C546.235 41.9787 546.95 41.6233 547.589 41.1555C548.228 40.6877 548.767 40.1165 549.208 39.4418C549.658 38.758 549.968 37.9754 550.139 37.0938L554.349 37.1072C554.125 38.4657 553.688 39.7161 553.04 40.8587C552.402 41.9922 551.579 42.9728 550.571 43.8004C549.572 44.6191 548.43 45.2533 547.143 45.7031C545.857 46.1529 544.454 46.3778 542.933 46.3778C540.54 46.3778 538.408 45.8111 536.537 44.6776C534.666 43.535 533.19 41.9022 532.111 39.7791C531.04 37.656 530.505 35.1236 530.505 32.1818C530.505 29.2311 531.045 26.6986 532.124 24.5845C533.204 22.4614 534.679 20.8331 536.55 19.6996C538.422 18.5571 540.549 17.9858 542.933 17.9858C544.4 17.9858 545.767 18.1972 547.036 18.62C548.313 19.0339 549.46 19.6456 550.477 20.4553C551.493 21.2559 552.334 22.2365 553 23.397C553.666 24.5485 554.116 25.8665 554.349 27.3509ZM563.05 18.3636V46H559.015V18.3636H563.05ZM568.478 46V25.2727H572.513V46H568.478ZM570.516 22.0746C569.814 22.0746 569.211 21.8407 568.707 21.3729C568.213 20.8961 567.965 20.3293 567.965 19.6726C567.965 19.0069 568.213 18.4401 568.707 17.9723C569.211 17.4955 569.814 17.2571 570.516 17.2571C571.217 17.2571 571.816 17.4955 572.31 17.9723C572.814 18.4401 573.066 19.0069 573.066 19.6726C573.066 20.3293 572.814 20.8961 572.31 21.3729C571.816 21.8407 571.217 22.0746 570.516 22.0746ZM586.874 46.4183C584.832 46.4183 583.073 45.982 581.598 45.1094C580.131 44.2277 578.998 42.9908 578.197 41.3984C577.406 39.7971 577.01 37.9214 577.01 35.7713C577.01 33.6482 577.406 31.777 578.197 30.1577C578.998 28.5384 580.113 27.2744 581.544 26.3658C582.983 25.4571 584.666 25.0028 586.591 25.0028C587.76 25.0028 588.894 25.1963 589.991 25.5831C591.089 25.9699 592.074 26.5772 592.947 27.4048C593.819 28.2325 594.507 29.3075 595.011 30.63C595.515 31.9434 595.767 33.5402 595.767 35.4205V36.8509H579.29V33.8281H591.813C591.813 32.7666 591.597 31.8265 591.165 31.0078C590.733 30.1802 590.126 29.5279 589.344 29.0511C588.57 28.5743 587.661 28.3359 586.618 28.3359C585.484 28.3359 584.495 28.6148 583.649 29.1726C582.812 29.7214 582.165 30.4411 581.706 31.3317C581.256 32.2133 581.031 33.1714 581.031 34.206V36.5675C581.031 37.9529 581.274 39.1314 581.76 40.103C582.255 41.0746 582.943 41.8168 583.824 42.3295C584.706 42.8333 585.736 43.0852 586.915 43.0852C587.679 43.0852 588.376 42.9773 589.006 42.7614C589.636 42.5365 590.18 42.2036 590.639 41.7628C591.098 41.322 591.449 40.7777 591.692 40.13L595.51 40.8182C595.205 41.9427 594.656 42.9278 593.864 43.7734C593.081 44.6101 592.096 45.2623 590.909 45.7301C589.73 46.1889 588.385 46.4183 586.874 46.4183ZM604.278 33.6932V46H600.244V25.2727H604.116V28.6463H604.373C604.85 27.5488 605.596 26.6671 606.613 26.0014C607.638 25.3357 608.929 25.0028 610.486 25.0028C611.898 25.0028 613.135 25.2997 614.197 25.8935C615.258 26.4782 616.081 27.3509 616.666 28.5114C617.251 29.6719 617.543 31.1068 617.543 32.8161V46H613.509V33.3018C613.509 31.7995 613.117 30.6255 612.335 29.7798C611.552 28.9252 610.477 28.4979 609.109 28.4979C608.174 28.4979 607.342 28.7003 606.613 29.1051C605.893 29.5099 605.322 30.1037 604.899 30.8864C604.485 31.66 604.278 32.5956 604.278 33.6932ZM632.63 25.2727V28.5114H621.308V25.2727H632.63ZM624.344 20.3068H628.379V39.9141C628.379 40.6967 628.496 41.286 628.73 41.6818C628.964 42.0687 629.265 42.334 629.634 42.478C630.012 42.6129 630.421 42.6804 630.862 42.6804C631.186 42.6804 631.469 42.6579 631.712 42.6129C631.955 42.5679 632.144 42.532 632.279 42.505L633.008 45.8381C632.774 45.928 632.441 46.018 632.009 46.108C631.577 46.2069 631.038 46.2609 630.39 46.2699C629.328 46.2879 628.339 46.099 627.421 45.7031C626.504 45.3073 625.761 44.6955 625.195 43.8679C624.628 43.0402 624.344 42.0012 624.344 40.7507V20.3068ZM652.291 30.3331L648.634 30.9808C648.481 30.513 648.238 30.0677 647.906 29.6449C647.582 29.2221 647.141 28.8757 646.583 28.6058C646.025 28.3359 645.328 28.201 644.491 28.201C643.349 28.201 642.395 28.4574 641.631 28.9702C640.866 29.474 640.484 30.1262 640.484 30.9268C640.484 31.6196 640.74 32.1773 641.253 32.6001C641.766 33.023 642.593 33.3693 643.736 33.6392L647.028 34.3949C648.936 34.8357 650.357 35.5149 651.293 36.4325C652.228 37.3501 652.696 38.5421 652.696 40.0085C652.696 41.25 652.336 42.3565 651.616 43.3281C650.906 44.2907 649.912 45.0464 648.634 45.5952C647.366 46.1439 645.895 46.4183 644.222 46.4183C641.901 46.4183 640.007 45.9235 638.54 44.9339C637.074 43.9354 636.174 42.5185 635.842 40.6832L639.741 40.0895C639.984 41.1061 640.484 41.8752 641.239 42.397C641.995 42.9098 642.98 43.1662 644.195 43.1662C645.517 43.1662 646.574 42.8918 647.366 42.343C648.157 41.7853 648.553 41.1061 648.553 40.3054C648.553 39.6577 648.31 39.1134 647.825 38.6726C647.348 38.2318 646.615 37.8989 645.625 37.674L642.116 36.9048C640.182 36.464 638.752 35.7623 637.825 34.7997C636.908 33.8371 636.449 32.6181 636.449 31.1428C636.449 29.9193 636.791 28.8487 637.474 27.9311C638.158 27.0135 639.103 26.2983 640.308 25.7855C641.514 25.2637 642.895 25.0028 644.451 25.0028C646.691 25.0028 648.454 25.4886 649.741 26.4602C651.027 27.4228 651.877 28.7138 652.291 30.3331Z" fill="#FA7892"/>
<line x1="667.293" y1="16.2929" x2="682.142" y2="1.44365" stroke="white" stroke-width="2"/>
<line x1="671.732" y1="23.138" x2="691.772" y2="16.8601" stroke="white" stroke-width="2"/>
<line x1="675.528" y1="33.0561" x2="696.514" y2="33.8301" stroke="white" stroke-width="2"/>
<g clip-path="url(#clip0_2020_29)">
<path d="M0.94515 50.4663L5.72686 48.7258L7.46629 43.9452C7.50617 43.8357 7.57878 43.7411 7.67425 43.6742C7.76973 43.6074 7.88346 43.5715 8.00001 43.5715C8.11656 43.5715 8.23028 43.6074 8.32576 43.6742C8.42124 43.7411 8.49384 43.8357 8.53372 43.9452L10.2743 48.7269L15.056 50.4663C15.1655 50.5062 15.2601 50.5788 15.327 50.6743C15.3938 50.7698 15.4297 50.8835 15.4297 51C15.4297 51.1166 15.3938 51.2303 15.327 51.3258C15.2601 51.4213 15.1655 51.4939 15.056 51.5338L10.2731 53.2743L8.53372 58.056C8.49384 58.1656 8.42124 58.2601 8.32576 58.327C8.23028 58.3938 8.11656 58.4297 8.00001 58.4297C7.88346 58.4297 7.76973 58.3938 7.67425 58.327C7.57878 58.2601 7.50617 58.1656 7.46629 58.056L5.72572 53.2732L0.94515 51.5338C0.835636 51.4939 0.74104 51.4213 0.674198 51.3258C0.607356 51.2303 0.571503 51.1166 0.571503 51C0.571503 50.8835 0.607356 50.7698 0.674198 50.6743C0.74104 50.5788 0.835636 50.5062 0.94515 50.4663Z" stroke="white" stroke-linecap="round" stroke-linejoin="round"/>
</g>
<defs>
<clipPath id="clip0_2020_29">
<rect width="16" height="16" fill="white" transform="translate(0 43)"/>
</clipPath>
</defs>
</svg>
